<svg xmlns="http://www.w3.org/2000/svg" viewBox="0 0 64 64" role="img" aria-label="Company comparison report generator icon">
  <defs>
    <linearGradient id="glass" x1="10" y1="4" x2="54" y2="60" gradientUnits="userSpaceOnUse">
      <stop offset="0" stop-color="#FFFFFF"/>
      <stop offset="0.48" stop-color="#EAF5FF"/>
      <stop offset="1" stop-color="#D7E9FF"/>
    </linearGradient>
    <linearGradient id="blue" x1="17" y1="47" x2="49" y2="18" gradientUnits="userSpaceOnUse">
      <stop offset="0" stop-color="#006EDB"/>
      <stop offset="1" stop-color="#5AA9FF"/>
    </linearGradient>
    <filter id="shadow" x="-20%" y="-20%" width="140%" height="140%">
      <feDropShadow dx="0" dy="4" stdDeviation="5" flood-color="#0B3D7A" flood-opacity="0.18"/>
    </filter>
  </defs>
  <rect x="6" y="6" width="52" height="52" rx="15" fill="url(#glass)" filter="url(#shadow)"/>
  <rect x="7.5" y="7.5" width="49" height="49" rx="13.5" fill="none" stroke="#FFFFFF" stroke-opacity="0.88" stroke-width="3"/>
  <path d="M22 18.5h18.5L48 26v19.5A4.5 4.5 0 0 1 43.5 50h-23A4.5 4.5 0 0 1 16 45.5v-22A5 5 0 0 1 21 18.5h1Z" fill="#FFFFFF" fill-opacity="0.78"/>
  <path d="M40.5 18.5V25a1.5 1.5 0 0 0 1.5 1.5h6" fill="none" stroke="#7EBEFF" stroke-width="2.2" stroke-linecap="round" stroke-linejoin="round"/>
  <rect x="23" y="37" width="5.6" height="8.5" rx="2.2" fill="url(#blue)"/>
  <rect x="31.2" y="30" width="5.6" height="15.5" rx="2.2" fill="url(#blue)"/>
  <rect x="39.4" y="24" width="5.6" height="21.5" rx="2.2" fill="url(#blue)"/>
  <path d="M21.5 27.5h13M21.5 32h7.2" stroke="#8A94A3" stroke-width="2.2" stroke-linecap="round"/>
</svg>
